<?xml version="1.0" encoding="UTF-8" standalone="no"?>
<svg
   xmlns:dc="http://purl.org/dc/elements/1.1/"
   xmlns:cc="http://creativecommons.org/ns#"
   xmlns:rdf="http://www.w3.org/1999/02/22-rdf-syntax-ns#"
   xmlns:svg="http://www.w3.org/2000/svg"
   xmlns="http://www.w3.org/2000/svg"
   id="svg8"
   version="1.1"
   viewBox="0 0 1000 1000"
   height="1000mm"
   width="1000mm">
  <defs
     id="defs2" />
  <metadata
     id="metadata5">
    <rdf:RDF>
      <cc:Work
         rdf:about="">
        <dc:format>image/svg+xml</dc:format>
        <dc:type
           rdf:resource="http://purl.org/dc/dcmitype/StillImage" />
        <dc:title></dc:title>
      </cc:Work>
    </rdf:RDF>
  </metadata>
  <g
     transform="translate(0,703)"
     id="layer1">
    <path
       id="path843"
       transform="matrix(0.26458333,0,0,0.26458333,0,-703)"
       d="M 1889.7637 649.76367 A 1297.1428 1240 0 0 0 1687.582 665.68359 L 1635.4062 952.08594 A 1007.4848 969.74571 0 0 0 1517.6777 988.94531 L 1295.5977 787.83984 A 1297.1428 1240 0 0 0 1094.6035 910.81055 L 1194.2109 1188.7266 A 1007.4848 969.74571 0 0 0 1098.3125 1291.4785 L 795.75977 1226.1328 A 1297.1428 1240 0 0 0 689.65234 1420.9316 L 923.1543 1618.7227 A 1007.4848 969.74571 0 0 0 890.71875 1771.2578 L 593.84375 1866.3984 A 1297.1428 1240 0 0 0 592.62109 1889.7637 A 1297.1428 1240 0 0 0 609.10352 2081.7012 L 916.26953 2137.4902 A 1007.4848 969.74571 0 0 0 969.4082 2281.293 L 765.73047 2505.5352 A 1297.1428 1240 0 0 0 898.51367 2687.5859 L 1187.9648 2584.1562 A 1007.4848 969.74571 0 0 0 1292.8301 2669.5938 L 1230.7422 2956.1992 A 1297.1428 1240 0 0 0 1448.9004 3054.3047 L 1640.9824 2828.2285 A 1007.4848 969.74571 0 0 0 1759.1855 2850.3008 L 1848.3809 3127.7832 A 1297.1428 1240 0 0 0 1889.7637 3129.7637 A 1297.1428 1240 0 0 0 2091.9453 3113.8438 L 2144.1211 2827.4414 A 1007.4848 969.74571 0 0 0 2261.8516 2790.582 L 2483.9297 2991.6875 A 1297.1428 1240 0 0 0 2684.9238 2868.7168 L 2585.3164 2590.8008 A 1007.4848 969.74571 0 0 0 2681.2148 2488.0488 L 2983.7676 2553.3945 A 1297.1428 1240 0 0 0 3089.875 2358.5957 L 2856.373 2160.8047 A 1007.4848 969.74571 0 0 0 2888.8086 2008.2695 L 3185.6836 1913.1309 A 1297.1428 1240 0 0 0 3186.9062 1889.7637 A 1297.1428 1240 0 0 0 3170.4238 1697.8262 L 2863.2578 1642.0371 A 1007.4848 969.74571 0 0 0 2810.1191 1498.2344 L 3013.7969 1273.9922 A 1297.1428 1240 0 0 0 2881.0156 1091.9414 L 2591.5625 1195.3711 A 1007.4848 969.74571 0 0 0 2486.6973 1109.9336 L 2548.7852 823.32812 A 1297.1428 1240 0 0 0 2330.627 725.22266 L 2138.5449 951.29883 A 1007.4848 969.74571 0 0 0 2020.3398 929.22656 L 1931.1465 651.74414 A 1297.1428 1240 0 0 0 1889.7637 649.76367 z "
       style="fill:none;fill-opacity:1;stroke:#000000;stroke-width:37.79527607;stroke-miterlimit:4;stroke-dasharray:none;stroke-opacity:1" />
    <ellipse
       ry="185.61948"
       rx="185.61949"
       cy="-203"
       cx="500"
       id="path861"
       style="fill:none;fill-opacity:1;stroke:#000000;stroke-width:10;stroke-miterlimit:4;stroke-dasharray:none;stroke-opacity:1" />
  </g>
</svg>
