<?xml version="1.0" encoding="UTF-8" standalone="no"?>
<!-- Created with Inkscape (http://www.inkscape.org/) -->

<svg
   xmlns:dc="http://purl.org/dc/elements/1.1/"
   xmlns:cc="http://creativecommons.org/ns#"
   xmlns:rdf="http://www.w3.org/1999/02/22-rdf-syntax-ns#"
   xmlns:svg="http://www.w3.org/2000/svg"
   xmlns="http://www.w3.org/2000/svg"
   xmlns:xlink="http://www.w3.org/1999/xlink"
   xmlns:sodipodi="http://sodipodi.sourceforge.net/DTD/sodipodi-0.dtd"
   xmlns:inkscape="http://www.inkscape.org/namespaces/inkscape"
   width="1000mm"
   height="1000mm"
   viewBox="0 0 1000 1000"
   version="1.1"
   id="svg8"
   inkscape:version="0.92.4 (5da689c313, 2019-01-14)"
   sodipodi:docname="rank6.svg">
  <defs
     id="defs2">
    <linearGradient
       inkscape:collect="always"
       id="linearGradient1044">
      <stop
         style="stop-color:#ffeeaa;stop-opacity:1"
         offset="0"
         id="stop1040" />
      <stop
         style="stop-color:#ffff00;stop-opacity:1"
         offset="1"
         id="stop1042" />
    </linearGradient>
    <linearGradient
       inkscape:collect="always"
       id="linearGradient849">
      <stop
         style="stop-color:#ffff00;stop-opacity:1;"
         offset="0"
         id="stop845" />
      <stop
         style="stop-color:#ffff00;stop-opacity:0;"
         offset="1"
         id="stop847" />
    </linearGradient>
    <radialGradient
       inkscape:collect="always"
       xlink:href="#linearGradient849"
       id="radialGradient892"
       gradientUnits="userSpaceOnUse"
       gradientTransform="matrix(-1.0090434,1.0095562,-1.0205291,-1.0198247,511.23369,-954.09825)"
       cx="397.40347"
       cy="-381.92029"
       fx="397.40347"
       fy="-381.92029"
       r="358.16284" />
    <radialGradient
       inkscape:collect="always"
       xlink:href="#linearGradient1044"
       id="radialGradient1046"
       cx="1933.8997"
       cy="1985.5098"
       fx="1933.8997"
       fy="1985.5098"
       r="722.67932"
       gradientTransform="matrix(-0.18621964,-0.19669777,0.28605166,-0.27080148,289.92577,708.94239)"
       gradientUnits="userSpaceOnUse" />
  </defs>
  <sodipodi:namedview
     id="base"
     pagecolor="#ffffff"
     bordercolor="#666666"
     borderopacity="1.0"
     inkscape:pageopacity="0.0"
     inkscape:pageshadow="2"
     inkscape:zoom="0.25"
     inkscape:cx="2407.3688"
     inkscape:cy="1524.058"
     inkscape:document-units="mm"
     inkscape:current-layer="layer1"
     showgrid="false"
     showguides="true"
     inkscape:guide-bbox="true"
     inkscape:snap-page="true"
     inkscape:snap-object-midpoints="true"
     inkscape:window-width="1920"
     inkscape:window-height="1156"
     inkscape:window-x="0"
     inkscape:window-y="44"
     inkscape:window-maximized="1"
     inkscape:snap-global="true">
    <sodipodi:guide
       position="999.99999,999.99999"
       orientation="-0.70710678,0.70710678"
       id="guide815"
       inkscape:locked="false" />
    <sodipodi:guide
       position="500,500"
       orientation="0,1"
       id="guide819"
       inkscape:locked="false" />
    <sodipodi:guide
       position="500,500"
       orientation="1,0"
       id="guide821"
       inkscape:locked="false" />
    <sodipodi:guide
       position="0,999.99999"
       orientation="0.70710678,0.70710678"
       id="guide1007"
       inkscape:locked="false" />
  </sodipodi:namedview>
  <metadata
     id="metadata5">
    <rdf:RDF>
      <cc:Work
         rdf:about="">
        <dc:format>image/svg+xml</dc:format>
        <dc:type
           rdf:resource="http://purl.org/dc/dcmitype/StillImage" />
        <dc:title />
      </cc:Work>
    </rdf:RDF>
  </metadata>
  <g
     inkscape:label="Layer 1"
     inkscape:groupmode="layer"
     id="layer1"
     transform="translate(0,703)">
    <g
       id="g954"
       transform="translate(0,68.925148)">
      <path
         style="fill:#ffff00;fill-opacity:1;stroke:#000000;stroke-width:15.11811066;stroke-miterlimit:4;stroke-dasharray:none;stroke-opacity:1"
         d="m 1093.5,1093.5 c -211.18245,211.1824 -329.82407,497.6067 -329.82422,796.2637 1.4e-4,257.4316 82.65861,499.0183 242.24022,697.9199 l -505.26366,500.2129 -9.7832,212.5449 208.86328,-15.6523 500.02538,-501.9297 c 163.9999,134.8042 320.4445,193.4072 478.0371,218.9883 L 1833.168,2775.7031 C 1618.38,2761.9906 1415.1229,2670.5955 1262.0273,2517.5 c -166.4858,-166.4858 -260.0157,-392.2898 -260.0156,-627.7363 -10e-5,-235.4465 93.5298,-461.2505 260.0156,-627.7364 z m 1592.5273,0 -168.5273,168.5273 c 166.4858,166.4858 260.0157,392.2899 260.0156,627.7364 10e-5,235.4465 -93.5299,461.2505 -260.0156,627.7363 -153.0106,153.0105 -356.1273,244.3866 -570.7832,258.1777 l 152.0879,226.0039 c 232.6835,-37.257 418.4753,-146.9069 587.2226,-315.6543 211.1824,-211.1824 329.8241,-497.6066 329.8243,-796.2636 -2e-4,-298.657 -118.6419,-585.0813 -329.8243,-796.2637 z"
         transform="matrix(0.26458333,0,0,0.26458333,0,-771.92515)"
         id="path1100"
         inkscape:connector-curvature="0"
         sodipodi:nodetypes="cccccccccssccccssccscc" />
    </g>
    <path
       style="fill:url(#radialGradient1046);fill-opacity:1;stroke:#000000;stroke-width:3.797;stroke-miterlimit:4;stroke-dasharray:none;stroke-opacity:1"
       d="m 389.26765,-33.258289 c 0,-0.354727 4.71202,-28.08755 10.47115,-61.628488 l 10.47117,-60.983543 -6.64888,-6.59767 c -3.65687,-3.62873 -23.6725,-23.17128 -44.47915,-43.42786 -20.80667,-20.25663 -37.82425,-37.03037 -37.81686,-37.27498 0.007,-0.24464 26.71413,-4.3204 59.34834,-9.05727 32.63421,-4.73685 60.36652,-8.76394 61.62732,-8.9491 l 2.29239,-0.3366 27.67293,-56.06106 c 15.22008,-30.83358 27.85216,-55.86164 28.07124,-55.61794 0.21911,0.24371 12.69627,25.41538 27.72709,55.93705 15.03082,30.52165 27.36131,55.53905 27.40116,55.59416 0.0399,0.0551 27.71768,4.10642 61.50633,9.00291 33.78867,4.89652 61.61659,9.06025 61.8399,9.25278 0.22333,0.19253 -19.71079,19.94437 -44.29799,43.89294 -36.24968,35.30813 -44.65372,43.76648 -44.43828,44.7253 0.91773,4.08431 20.66521,120.773676 20.53693,121.354381 -0.0981,0.443975 -19.68544,-9.552866 -51.40534,-26.235806 -28.18585,-14.824246 -53.06178,-27.857876 -55.27987,-28.963672 l -4.03287,-2.010544 -54.80368,28.826236 c -30.14202,15.85439 -55.01953,28.91112 -55.28334,29.014952 -0.26382,0.103792 -0.47969,-0.101448 -0.47969,-0.456176 z"
       id="path1038"
       inkscape:connector-curvature="0" />
    <path
       style="fill:#ffff00;fill-opacity:1;stroke:#000000;stroke-width:4.95598412;stroke-miterlimit:4;stroke-dasharray:none;stroke-opacity:1"
       d="m 500.00002,43.27059 58.32612,77.99285 -58.32616,77.9928 -58.32611,-77.99285 z"
       id="rect1419"
       inkscape:connector-curvature="0"
       sodipodi:nodetypes="ccccc" />
    <path
       sodipodi:nodetypes="cccccc"
       inkscape:connector-curvature="0"
       id="path1427"
       d="m 677.76951,39.21585 c 20.94216,-16.837839 37.86893,-34.5334873 52.65581,-52.112226 l 132.80218,132.298496 4.14145,55.26196 -56.236,-2.58847 z"
       style="fill:#ffff00;fill-opacity:1;stroke:#000000;stroke-width:4;stroke-miterlimit:4;stroke-dasharray:none;stroke-opacity:1" />
  </g>
</svg>
