<?xml version="1.0" encoding="UTF-8" standalone="no"?>
<svg
   xmlns:dc="http://purl.org/dc/elements/1.1/"
   xmlns:cc="http://creativecommons.org/ns#"
   xmlns:rdf="http://www.w3.org/1999/02/22-rdf-syntax-ns#"
   xmlns:svg="http://www.w3.org/2000/svg"
   xmlns="http://www.w3.org/2000/svg"
   xmlns:xlink="http://www.w3.org/1999/xlink"
   id="svg8"
   version="1.1"
   viewBox="0 0 1000 1000"
   height="1000mm"
   width="1000mm">
  <defs
     id="defs2">
    <linearGradient
       id="linearGradient1044">
      <stop
         id="stop1040"
         offset="0"
         style="stop-color:#e6e6e6;stop-opacity:1" />
      <stop
         id="stop1042"
         offset="1"
         style="stop-color:#999999;stop-opacity:1" />
    </linearGradient>
    <linearGradient
       id="linearGradient849">
      <stop
         id="stop845"
         offset="0"
         style="stop-color:#ffff00;stop-opacity:1;" />
      <stop
         id="stop847"
         offset="1"
         style="stop-color:#ffff00;stop-opacity:0;" />
    </linearGradient>
    <radialGradient
       r="358.16284"
       fy="-381.92029"
       fx="397.40347"
       cy="-381.92029"
       cx="397.40347"
       gradientTransform="matrix(-1.0090434,1.0095562,-1.0205291,-1.0198247,511.23369,-954.09825)"
       gradientUnits="userSpaceOnUse"
       id="radialGradient892"
       xlink:href="#linearGradient849" />
    <radialGradient
       gradientUnits="userSpaceOnUse"
       gradientTransform="matrix(-0.74400376,-0.78586705,1.1428629,-1.0819338,1050.3931,5593.976)"
       r="722.67932"
       fy="1985.5098"
       fx="1933.8997"
       cy="1985.5098"
       cx="1933.8997"
       id="radialGradient1046"
       xlink:href="#linearGradient1044" />
  </defs>
  <metadata
     id="metadata5">
    <rdf:RDF>
      <cc:Work
         rdf:about="">
        <dc:format>image/svg+xml</dc:format>
        <dc:type
           rdf:resource="http://purl.org/dc/dcmitype/StillImage" />
        <dc:title></dc:title>
      </cc:Work>
    </rdf:RDF>
  </metadata>
  <g
     transform="translate(0,703)"
     id="layer1">
    <g
       transform="translate(0,68.925148)"
       id="g954">
      <g
         style="fill:#800080;fill-opacity:1"
         id="g896"
         transform="translate(-0.00988619,-204.86229)">
        <path
           id="rect1016"
           d="m 295.40762,-436.44916 h 409.20453 v 183.75118 l -131.24436,97.03954 -147.56235,0 -130.39782,-97.03954 z"
           style="fill:#800080;fill-opacity:1;stroke:#000000;stroke-width:4;stroke-miterlimit:4;stroke-dasharray:none;stroke-opacity:1" />
      </g>
      <path
         id="path1009"
         d="M 620.3623,-71.316188 499.99999,-134.5944 379.63769,-71.316198 402.62484,-205.34159 305.2497,-300.25891 439.81884,-319.81295 500,-441.75327 l 60.18115,121.94032 134.56915,19.55405 -97.37515,94.91731 z"
         style="fill:#ffffff;fill-opacity:1;stroke:#000000;stroke-width:4;stroke-miterlimit:4;stroke-dasharray:none;stroke-opacity:1" />
      <path
         id="path1022"
         d="M 425.79555,-360.52075 V -641.32008"
         style="fill:none;stroke:#000000;stroke-width:5;stroke-linecap:butt;stroke-linejoin:miter;stroke-miterlimit:4;stroke-dasharray:none;stroke-opacity:1" />
      <path
         id="path1024"
         d="M 573.3579,-360.52075 V -641.32008"
         style="fill:none;fill-opacity:1;stroke:#000000;stroke-width:5;stroke-linecap:butt;stroke-linejoin:miter;stroke-miterlimit:4;stroke-dasharray:none;stroke-opacity:1" />
      <path
         transform="matrix(0.26458333,0,0,0.26458333,0,-771.92515)"
         id="path1036"
         d="M 1619.2364,1024.5563 V 501.94211 h 269.2255 269.2255 v 522.61419 522.6141 h -55.5314 -55.5313 l -47.684,-96.7176 c -26.2261,-53.1946 -61.4448,-124.7147 -78.2638,-158.9335 l -30.5799,-62.2159 -78.77,158.9335 -78.7701,158.9335 h -56.6602 -56.6603 z"
         style="fill:#999999;fill-opacity:1;stroke:#000000;stroke-width:7.55905522;stroke-miterlimit:4;stroke-dasharray:none;stroke-opacity:1" />
      <path
         transform="matrix(0.26458333,0,0,0.26458333,0,-771.92515)"
         id="path1038"
         d="m 1447.2941,2628.6598 c 0,-1.4172 18.8259,-112.2182 41.8354,-246.2244 l 41.8355,-243.6477 -26.5643,-26.3597 c -14.6103,-14.4979 -94.5788,-92.5763 -177.7077,-173.5075 -83.1289,-80.9313 -151.1193,-147.9475 -151.0898,-148.9248 0.03,-0.9774 106.7311,-17.2613 237.1146,-36.1865 130.3836,-18.9252 241.1825,-35.0146 246.2198,-35.7544 l 9.1588,-1.3448 110.5617,-223.9809 c 60.8089,-123.1895 111.2778,-223.1842 112.1531,-222.2105 0.8754,0.9737 50.7255,101.5421 110.7781,223.4854 60.0527,121.9433 109.3168,221.8953 109.476,222.1155 0.1593,0.2201 110.7406,16.4064 245.7364,35.9694 134.9959,19.563 246.177,36.1984 247.0691,36.9676 0.8922,0.7692 -78.7506,79.6838 -176.9839,175.3656 -144.8283,141.0667 -178.4052,174.8604 -177.5444,178.6911 3.6667,16.3181 82.5639,482.5274 82.0514,484.8475 -0.3918,1.7738 -78.6495,-38.1666 -205.3801,-104.82 -112.6109,-59.2273 -211.9978,-111.3006 -220.8597,-115.7186 l -16.1125,-8.0327 -218.9573,115.1695 c -120.4265,63.3431 -219.8197,115.5087 -220.8737,115.9235 -1.0541,0.4148 -1.9165,-0.4054 -1.9165,-1.8226 z"
         style="fill:url(#radialGradient1046);fill-opacity:1;stroke:#000000;stroke-width:17.10159874;stroke-miterlimit:4;stroke-dasharray:none;stroke-opacity:1" />
    </g>
  </g>
</svg>
